<?xml version="1.0" encoding="UTF-8"?>
<svg id="Layer_1" data-name="Layer 1" xmlns="http://www.w3.org/2000/svg" viewBox="-120 0 1628 216.49">
  <g>
    <path fill="none" d="M198.75,115.56c-2.28.54-3.37-1.17-5.27-1.09-.24-.01-.63-.19-.93-.17-.04-.55.33-1.08.85-1.08,3.92-.02,2.9-.51,5.35,2.34Z"/>
    <path fill="none" d="M179.63,48.94l-3.88,3.92c-.25-1.24-.22-2.6.71-3.38.86-.72,2.07-.64,3.17-.54Z"/>
    <path fill="none" d="M25.44,168.67l-4.75.05c.05-.37-.32-1.37.47-1.37l4.25-.02c.16.6.09.99.03,1.35Z"/>
    <path fill="none" d="M82.11.1c.06.18.07.55-.04.69-.12.16-.5.3-.89.3l-5.85-.13c.28-.29.34-.98,1.47-.96l5.3.1Z"/>
    <path fill="none" d="M92.16,1.09h-5.3c-.39,0-.76-.15-.88-.31-.11-.14-.11-.5-.06-.69l5.36-.04c.65,0,.95.55.88,1.03Z"/>
    <path fill="none" d="M65.7,207.75c-.44.43-.44,1.61-.4,2.23-.31,0-.9.06-1.13-.11-.32-.25-.33-.73-.36-1.39-.03-.71-.11-1.38.76-1.43.38-.02.8.15,1.14.7Z"/>
    <path fill="#d9a431" d="M.04,119.41c0-1.27-.11-2.52.95-3.42.56.98.68,2.08.38,3.35-.53.16-.94.12-1.34.08Z"/>
    <path fill="none" d="M44.7,21.63l-3.88.02c-.09-.35.05-.87.33-.93,1.91-.4,3.89-.1,3.55.9Z"/>
    <path fill="none" d="M71.39,2.49c.06.18.05.72-.07.97-.1.21-.33.36-.65.38l-1.56.06c-.23-.63-.01-1.45.75-1.44.5,0,1.02-.03,1.53.03Z"/>
    <g>
      <path fill="none" d="M193.4,112.72c-2.9-.15-5.91.59-9.38.57-2.33,2.27-6.53,1.29-8.3,6.07-.36-.15-1.39-.1-1.42.5l-.1,2.34c-.74-.29-1.43.03-1.43.78,0,.53-.02,1.05,0,1.64l-58.47-.04-.04,7.71v1.47c-.38.19-.7.63-1.47.43l.04-10.48,8.91-.17c.27,0,.68-.66.87-.58.2.08.57.4.84.74l21.39-.1c1.04-.58,2.01.04,3.01.04l16.76.1.98-1.51h7.32c-.27-1.71-.52-2.99.7-4.1.81-.74,1.51-1.36,3.12-1.32-1.02-2.18,1.65-2.89,5.08-3.86.92-.26,1.74-1.26,2.99-1.25l8.5.06c.17.25.14.79.08.96Z"/>
      <polygon fill="#f7ecd4" points="102.74 142.87 102.73 144.32 74.47 144.29 74.46 142.86 102.74 142.87"/>
      <path fill="none" d="M119.05,193.17c-.4.16-.92-.03-.92-.3l.02-1.1c-.65-1.81.44-3.39.72-4.86.41-2.13.81-4.27,2.54-5.24.66.24.86,1.37.56,1.65l-1.37,1.29c-.15,1.47.21,3.12-1.59,3.7l.04,4.85Z"/>
      <path fill="none" d="M59.09,113.17l-5.3-.04c.04-.33-.08-.73.12-1.39h5.07c.18.64.17,1.06.11,1.43Z"/>
      <path fill="#d9a431" d="M32.21,122.29c.05.27.04.91-.18,1.25-1.56.26-3.31.38-4.63-.31.13-.55.62-.98,1.42-.97l3.38.04Z"/>
      <path fill="#d9a431" d="M19.79,123.14c-.1.4-.48.59-.99.58l-3.44-.04.05-1.41c1.62.03,3.28-.35,4.38.86Z"/>
      <path fill="#d9a431" d="M74.46,142.86v1.43s-3.39.03-3.39.03c-.04-.38-.08-.8.08-1.41l3.32-.04Z"/>
      <path fill="none" d="M13.97,122.26c-1.31-.02-2.48.12-3.33-.83.89-.64,2.1-.86,3.23-.45.21.27.15,1.06.1,1.29Z"/>
      <path fill="none" d="M42.27,81.03c-1.4.04-2.4,0-3.48-.71.93-.73,2.22-.97,3.39-.55.22.22.14,1.05.09,1.25Z"/>
      <path fill="#d9a431" d="M53.78,113.13l-.22,1.22c-1.13.3-2.25.33-3.28-.36,1.02-.86,2.01-.87,3.5-.86Z"/>
      <path fill="none" d="M35.04,121.41c-.52,1.09-1.79.89-2.83.88-.05-.29-.12-1.04.09-1.31.97-.43,2.07-.14,2.74.43Z"/>
      <g>
        <path fill="#d9a431" d="M72.02,162.52c-1.17,3.33.47,6.08-1.46,6.23-.34.07-.86.12-1.15,0-.26-.11-1.23-3.27,1.19-5.06.23-.17,0-1.49.24-1.51.31-.03.79.14,1.18.34Z"/>
        <path fill="none" d="M38.91,167.77c.33,1.39-1.59.83-5.68.85-.9-1.7,2.22-1.83,5.68-.85Z"/>
        <path fill="none" d="M10.15,72.05c-.25,1.64-1.6,2.53-3.38,2.43.42-.66.63-1.56,1.24-2.3.41-.49,1.57-.27,2.14-.14Z"/>
        <path fill="none" d="M67.64,144.19l-3.35-.08c-.34,0-.41-1-.2-1.25l3.53.09c.21.3.11,1.01.03,1.23Z"/>
        <path fill="none" d="M71.54,174.99c-.18.06-.54.06-.68-.05-.17-.13-.31-.49-.31-.88l.03-4.36c.27-.17.95-.07.95.46v4.83Z"/>
        <path fill="#d9a431" d="M69.21,189.42c-.09-1.38-.3-3.15.85-3.87.58.97.88,2.44.31,3.57-.18.36-1,.28-1.16.3Z"/>
        <path fill="#d9a431" d="M71.53,180.22l.05,3.89c0,.71-.46,1.03-.92,1.06l-.05-4.47c0-.52.65-.63.93-.48Z"/>
        <path fill="#d9a431" d="M44.63,196.99l-2.38.06c-.64.02-.95-.34-.93-1,.96-.46,2.01-.58,3.26-.33l.05,1.27Z"/>
        <path fill="none" d="M13.01,49.9c-.02.99-.07,1.9-.05,2.86l-1.39-.02.05-2.75c.58-.16,1.01-.12,1.39-.09Z"/>
        <path fill="none" d="M16.8,38.32l-.08,2.89c-.53.11-.94.07-1.32.06l.04-2.33c.01-.77,1.03-.55,1.37-.62Z"/>
        <g>
          <path fill="#f7ecd4" d="M85.92.1c-.05.19-.05.55.06.69.13.16.49.31.88.31h5.3c1.06-.51,1.77.97,2.42,1.2,1.6.54,2.23,1.01,3.34,2.24l3.11,3.42c.57,2.13,1.11,3.72,2.68,4.99-.21.07-.52-.04-.97.3v118.14s-35.02-.02-35.02-.02c-.46,0-.79.12-.93.28-.12.13-.14.49-.08.68l-1.41.02c-.54,0-1.31-.08-2,.15-.34.11-.32.89-.3,1.25-1.58,1.05-1.55,3.51-1.51,5.31.01.64-.13,1.3.1,2.07.12.4.96.35,1.31.3.23.57.55,1.17,1.19,1.47-.2.24-.14,1.24.2,1.25l3.35.08,3.43.12,3.4-.03,28.26.03.03,53.81c-1.32.14-.61,2.98-2.89,5.5-.84.37-1.59.89-1.6,1.94l-1.27-.78c-1.92.07-2.83,2.11-3.63,3.42-2.54.34-3.88,2.79-5.61,3.87-1.16.72-2.93.09-4.12.25l-1.14,1.56-7.56-.08c-2.32-3.79-5.38-3.07-5.82-4.67-.78-2.84,3.74-3.49,5.51-4.77,1.37-.99,3.22-2.53,4.17-3.89.42-.61,1.25-4.25,3.33-5.42-.28-2.47,1.08-4.8,2.12-6.81l.47-6.8c.93-1,1.47-1.42,1.42-2.93-.04-1.01-.79-1.41-1.5-2.12l-.33-6.4c-.43-.25-1.27-.65-1.3-1.03-.06-.61.29-1.12.66-1.53,1.64-1.8-3.59-9.47-10.31-7.72l-4.36,1.14c.65,2.16-.09,3.33-1.02,4.78-.42.66-1.01,6.56.93,7.46.59,2.12.17,4.81.15,6.82-3.13.71,1.2,4.46-3.58,8.61-.44.47-.27,2.18-1.76,2.09l.08,2.62c-1.74-.3-2.95,0-4.46.72l-4.91.4c-.44.26-1.03,1.63-1.9.87-.18-.16-.35-.73-.54-.87-.13-.1-.67-.14-.67.02s-.04.86-.24.97c-.78.43-2.96.56-3.5-.15-1.15-1.5-2.8-.84-6.17-2.26-1.49-.63-3.9-3.38-8.06-3.81-.63-1.08-1.63-2.27-2.47-3.21-.29-.32-.07-1.6-.44-1.67-3.05-.6-1.26-3.02-3.5-3.51s-3.71-9.06-.75-9.65c.65-.13.79.93.97,1.41,1.92.23,4.84.23,6.76-.04.96-1.4,1.89-1.24,3.53-1.52,1.42-.24,2.82-1.9,4.67-1.31l.15-2.25c.89-1.34,2.34-1.43,3.83-1.53l2.23-.14c.15-.49,0-.8,0-1.09-.03-1.5,2.78-1.34,2.96-3.16.46-4.89.12-3.93-2.75-6.62l-.22-1.84-4.48-.02c-.16.61-.13.97-.11,1.34-1.03-.02-1.92.09-2.51.89-1.01,1.39-2.61,1.76-4.24,1.57-.98-.11-2.14-.24-3.32.03-.5.11-.53.97-.47,1.31l-8.47.09c-1.21.01-2.48-.24-3.59.48l-.49-.51.06-1.32c0-.28.2-1.05-.57-1.04-.57,0-1.87.47-2.24-.24l-1.26-2.44c-2.66-.37-4.42-1.96-5.46-4.41-.45-1.06-1.78-2.19-2.59-3.38-.29-.42-1.73-.21-2.05-.59-.95-1.15.91-3.82-2.34-6.97-.34-.98-.74-2.43-1.45-3.12-1.31-2.83-.09-6.03-.3-9.07-.08-.69-1.18-1.37-.88-2.39.38-1.27,1.95-3.43,3.18-3.79,1.98-.57,2.44,2.28,3.48,2.59s1.78.99,2.52,1.41c1.32.74,3.32.26,4.6.28l3.44.04c.51,0,.89-.18.99-.58,1.24,1.37,3.23.25,4.74-.49.85.49,2.01,1.6,2.87.57,1.32.69,3.07.57,4.63.31.22-.34.23-.97.18-1.25,1.04.01,2.31.21,2.83-.88l4.36-2.07,2.66-1.08c2.81-2.21,6.78-3.05,8.22-4.26,1.03.68,2.15.66,3.28.36l.22-1.22,5.3.04c-.08.69.16,1.37.73,1.43.63.07,1.11.01,1.6.01h2.45c1.27,0,2.53.11,3.58-.82.59.73,1.21.95,2.18.84,2.43-.28,4.7.85,8.87-1.71l3.6-2.21,1.61-2.16c1.67-1.12,3.04-2.66,3.22-4.57.36.06.76.1,1.27.01l.15-2.32c.05-.75.17-1.75.65-2.36.28-.35.84-.54.82-1.46l-.13-4.82c-.01-.5-1.05-.61-1.35-.4.37-2.62-2.85-1.75-2.42-3.93.06-.29.09-.86-.05-1.1-.26-.45-2.29-.54-2.77.02-.2.23-.23.77-.15,1.12-1.05-.12-1.77.67-2.25,1.53-.39-.04-.74-.06-1.34.12-.13,2.25-.25,4.45.18,6.51.51,1.98-2.22,1.82-4.06,4.79l-2.4.06c-.14.59-.08,1-.02,1.38h-7.79c.04-.38.09-.78-.02-1.34l-3.75-.11c.09-.34.06-1.32-.42-1.33l-5.64-.16c-.23-1.27-.9-1.49-1.87-1.48-.81.01-1.06.69-1.74,1.53-.4-.48-.69-1.51-1.14-1.5-.63,0-1.24.15-1.65.59-1.65,1.78-3.87.46-4.83,1.12-.32.22-.39.99-.7,1.53-.97,1.67-3.22,1.55-4.66,2.51-.59.39-1.09,1.65-2.27,1.07-1.47-.73-1.87.99-2.51,1.14-1.57.37-2.85,1.55-3.86,2.48l-6.54.32c-.94,1.17-1.63,1.56-3.51,1.44-1.26-.08-2.4.02-2.75-1.68l-5.99.1c.37-1.77,2.59-3.02,1.37-3.78-.17-.11-.67-.09-.87,0-.18.09-.29.55-.29.86-1.67,1.33-3.34.67-4.55-.62-1.14-1.22-1.34-2.41-2.05-3.81-.35-.68-1.77-1.35-1.12-2.69.71-1.45-1.08-2.17-1.24-2.9-.56-2.53-.15-5.67-.09-8.05,1.14-.48,1.15-1.99,1.57-2.7,1.31-2.23,2.76-4.09,2.08-6.88l2.91-.15c.11-4.79,5.43-3.34,6.65-6.73l5.37.09c.25.43.66,1.19,1,1.4,2.27-.04,3.77,1.12,5.45,2.22.79.52,1.8.44,2.43,1.51,1.25,2.12,3.43,2.95,5.99,2.49.07,1.2-.1,2.09.37,2.98,1.77.06,3.79-.49,5.27.23,5.69,2.77,5.44-2.72,9.92-4.92-1.4-.63-1.89-1.31-1.5-2.68-2-1.7-2.81-4.35-2.47-7.01l-5.1-.08c-.27-2.89-4.68.44-6.16-4.51-.82-.62-1.67-1.32-2.58-1.61-.43.32-1.05.91-1.56.92-3.43.02-4.92-2.52-6.83-2.42.21-.17.09-1.36-.36-1.35l-8.47.1c-.9,1.21-2.28,1.79-3.76.96.34-2.4.26-4.92.19-7.4-.03-.96.03-1.88.05-2.86l.07-3.83,2.31-4.8c.39,0,.79.05,1.32-.06l.08-2.89c1.66-2.49,5.05-7.78,5.62-8.16l4.33-2.93c.55-.37,1.57-.66,2.03-1.33.83-1.21,2.66-.88,3.72-1.57l1.69-1.1c1.5-.09,2.39-.34,3.34-1.08.61.89,1.99,1.24,3.14.73.18-.26.24-.97.17-1.22l3.88-.02c.57.7.08,1.48.08,2.44l-.06,9.29c.36.18.95.3,1.14.31.21,0,.5.49.09.74-.37.22-.94.32-1.14.53-.28.29-.15.77-.13,1.08l.16,2.34,1.29-.11c-.08.7-.07,1.7.39,2.34.28.39,1.28.61,1.91.93.07,1.26-.02,3.17,1.4,3.67,1.8.63,1.9,2.27,2.9,3.4,1.67,1.88,5.13,3.11,5.23,5.84.34.44,1.55.51,1.82.9.3.44.38,1.51.15,2.28,1.8.7,2.17,2.26,1.99,3.78-.36.68-.42,1.37-.4,2.63.38.16.95.13,1.37.09.31.59.93,1.24.94,2.14l.14,9.69c1.09.38,1.48,1.13,1.44,2.33,3.11,1.88,4.62-2.72,6.81-5.78.67-.94.8-1.6.8-2.92l-.03-7.73-.05-3.67.13-3.99c-2.86-.86.26-3.82-5.04-7.02-.56-2.27-2.31-3.78-3.95-5.65-.82-.93-.75-3.18-2.7-3.48l.02-3.34c-1.67.21-2.37-.83-3.13-1.54-1.5-1.41.24-4.27-1.34-7.11,1.81-3.28-.75-5.2,2.03-7.45.72-.59,1.12-1.73,2.41-1.92l.18-3.09c1.83-1.51,2.75-3.86,5.19-5.33,2.21-.68,4.44-2.03,3.95-4.43.32-.02.55-.17.65-.38.12-.25.12-.79.07-.97,1.95.24,1.94-1.62,3.95-1.52l5.85.13c.38,0,.77-.14.89-.3.11-.15.1-.51.04-.69h3.81Z"/>
          <path fill="#f7ecd4" d="M61.48,101.65h-1.45s-2.4,0-2.4,0c-1.25,0-2.34-.11-2.74,1.38-.66-.87-1.25-1.42-1.82-1.38-.5.04-.88.84-1.06,1.66l-2.55-1.4c-1.35,2.27-3.61,2.21-5.73,2.21-.79.98-2.39,1.32-3.51,1.79-2.14.9-3.47,2.52-6.09,2.52-.74,0-1.3,1.62-1.66,2.11-1.31.17-2.89,1.03-4.17,1.03l-12.41.05c-5.05.02-6.77-4.12-6.85-.89-1.14-.4-.81-2-1.63-2.53l-3.14-2.04c-.08-1.54-1.21-1.96-1.88-2.94-.88-1.29-.51-3.77-1.39-4.85.21-.03.47-.23.47-.56l.04-10.07c0-.51-.2-.87-.49-.98.62-.46.11-2.03.43-2.9,1.27-3.46,3.43-6.46,5.31-9.39,1.78.1,3.13-.8,3.38-2.43.27-1.76,2.41-1.55,3.78-1.55h9.16c.33.04,1.36-.17,1.85.03,1.21,1.85,3.2,2.2,4.83,3.42l4.58,3.44,4.43,2.92c1.08.71,2.08.75,3.48.71l1.51-.04c.6-.02,1.44.22,2.13-.16.29-.16.22-1.02.1-1.21,2.63-.74,1.89-6.15-.44-7.52-.61-.36-1.99-.11-2.12-1.47-2.26.13-4.01-1.41-5.74-2.73-2.24-1.71-5.74-3.1-5.53-5.03.52,0,1.14-.59,1.56-.92.91.28,1.76.98,2.58,1.61,1.48,4.96,5.89,1.63,6.16,4.51l5.1.08c-.34,2.66.47,5.31,2.47,7.01-.39,1.37.11,2.05,1.5,2.68-4.49,2.2-4.23,7.69-9.92,4.92-1.48-.72-3.5-.17-5.27-.23-.47-.89-.3-1.78-.37-2.98-2.56.46-4.74-.37-5.99-2.49-.63-1.07-1.64-.99-2.43-1.51-1.68-1.1-3.18-2.26-5.45-2.22-.34-.2-.76-.97-1-1.4l-5.37-.09c-1.22,3.39-6.55,1.94-6.65,6.73l-2.91.15c.69,2.79-.76,4.66-2.08,6.88-.42.72-.44,2.22-1.57,2.7-.06,2.38-.47,5.52.09,8.05.16.73,1.94,1.45,1.24,2.9-.65,1.34.77,2.01,1.12,2.69.71,1.4.92,2.59,2.05,3.81,1.21,1.29,2.88,1.95,4.55.62,0-.31.11-.78.29-.86.2-.09.7-.11.87,0,1.22.76-1,2.01-1.37,3.78l5.99-.1c.35,1.7,1.49,1.6,2.75,1.68,1.87.12,2.57-.27,3.51-1.44l6.54-.32c1.02-.93,2.29-2.11,3.86-2.48.64-.15,1.05-1.87,2.51-1.14,1.18.58,1.68-.68,2.27-1.07,1.45-.96,3.7-.84,4.66-2.51.31-.54.38-1.3.7-1.53.96-.67,3.18.65,4.83-1.12.41-.44,1.02-.58,1.65-.59.45,0,.74,1.02,1.14,1.5.67-.84.93-1.52,1.74-1.53.97-.01,1.64.2,1.87,1.48l5.64.16c.48.01.51.99.42,1.33Z"/>
          <path fill="#f7ecd4" d="M10.64,121.42c.86.96,2.02.81,3.33.83l1.44.02-.05,1.41c-1.28-.01-3.29.47-4.6-.28-.73-.42-1.43-1.09-2.52-1.41s-1.51-3.16-3.48-2.59c-1.24.36-2.8,2.52-3.18,3.79-.31,1.02.8,1.7.88,2.39.21,3.04-1.01,6.23.3,9.07.71.7,1.12,2.15,1.45,3.12,3.26,3.15,1.4,5.82,2.34,6.97.32.38,1.76.17,2.05.59.81,1.19,2.14,2.33,2.59,3.38,1.04,2.45,2.8,4.04,5.46,4.41l1.26,2.44c.37.71,1.67.25,2.24.24.76,0,.58.77.57,1.04l-2.91-.09c-2.18-.07-3.98-1.47-5.02-3.68-.68-.24-2.02-.18-2.47-.8l-4.44-6.08c-.49-.68-1.87-3.56-3.19-5.91-.86-1.54-1.15-3.54-1.18-5.08l-.05-2.9-.08-2.3c-.54-.13-.95-.09-1.33-.05l-.02-10.55c.39.05.81.09,1.34-.08.3-1.27.17-2.37-.38-3.35.24-.2.32-.52.74-.45.31.05.59.06.87.37l1.83,1.99c2.2,1.12,4.63,1.77,6.21,3.53Z"/>
          <path fill="#d9a431" d="M25.36,60.46l-7.06-.04-.97,1.52-5.66-.04c-.2-.65-.04-1.05-.04-1.41l1.16-.32c1.48.83,2.86.25,3.76-.96l8.47-.1c.45,0,.56,1.18.36,1.35Z"/>
          <path fill="#d9a431" d="M1.01,98.37c-.33-.11-1.01-.16-1.01-.98l.05-9.13c0-.85.5-1.14.99-1.49.29.1.49.46.49.98l-.04,10.07c0,.33-.26.53-.47.56Z"/>
          <path fill="#f7ecd4" d="M33.2,158.13c.04.31.04.88-.15,1.5h-8.37s.05-1.41.05-1.41l8.47-.09Z"/>
          <path fill="#d9a431" d="M80.68,90.25c-.24.38.01,1.08.39,1.16.24.06,1.04,0,1.03.79,0,.4-1.22.38-1.35.76-.41,1.14.29,2.67-.19,3.53-.15.27-.68.44-1.05.38-.43-2.05-.31-4.25-.18-6.51.6-.18.95-.16,1.34-.12Z"/>
          <path fill="#f7ecd4" d="M12.96,52.76c.07,2.48.15,5-.19,7.4l-1.16.32-.04-7.74,1.39.02Z"/>
          <path fill="#d9a431" d="M23.1,70.51h-9.16c-.02-.15-.04-.54.06-.69.11-.16.5-.3.9-.3h7.28c.71,0,.88.65.93.99Z"/>
          <path fill="#f7ecd4" d="M48.55,154.84c-.82-.23-1.62-.45-2.45-.47l-2.36-.05c-.02-.37-.06-.73.11-1.34l4.48.02.22,1.84Z"/>
          <path fill="none" d="M43.74,154.32l2.36.05c.05.29.13.9-.02,1.15-.26.43-3.08.64-4.85-.31.59-.81,1.48-.92,2.51-.89Z"/>
          <path fill="#d9a431" d="M37,156.78c.06.21.11,1.01-.11,1.28-1.28.39-2.56.05-3.69.06-.06-.34-.02-1.2.47-1.31,1.17-.27,2.34-.15,3.32-.03Z"/>
          <path fill="#d9a431" d="M65.25,103.1l-3.69-.03c-.16-.57-.17-1.09-.08-1.41l3.75.11c.11.56.06.96.02,1.34Z"/>
          <path fill="#d9a431" d="M24.73,158.22l-.05,1.42-2.61.04c-.42,0-.67-.16-.81-.34-.15-.19-.02-.53-.12-.64,1.11-.72,2.38-.46,3.59-.48Z"/>
          <path fill="none" d="M20.72,156.86l-.06,1.32-2.78-.04c-.15-.6-.11-1-.08-1.37l2.91.09Z"/>
          <path fill="#f7ecd4" d="M40.82,21.65c.06.25,0,.97-.17,1.22-1.15.51-2.53.16-3.14-.73.89-.7,2.24-.49,3.31-.49Z"/>
          <path fill="none" d="M55.24,25.49v2.88c-.3.04-.92.11-1.17-.05-.48-.32-.48-2.47,0-2.79.24-.16.87-.09,1.16-.04Z"/>
          <path fill="none" d="M1.47,132.31l.05,2.9c-.41.03-.82.07-1.42-.09l-.06-2.79,1.42-.02Z"/>
          <path fill="#f7ecd4" d="M62.9,64.1c-.42.04-.99.08-1.37-.09-.02-1.25.04-1.94.4-2.63,1.07.44,1.19,1.68.97,2.71Z"/>
          <path fill="#d9a431" d="M1.47,132.31l-1.42.02v-2.37c.39-.04.8-.08,1.34.05l.08,2.3Z"/>
          <path fill="none" d="M46.01,79.62c.12.19.19,1.05-.1,1.21-.68.38-1.53.14-2.13.16-.07-.36-.13-.73,0-1.31l2.23-.06Z"/>
          <path fill="#d9a431" d="M60.03,101.65c.14.39.1,1.31-.27,1.4-.47.12-1.42.11-1.85,0-.37-.1-.42-1.02-.28-1.41h2.4Z"/>
          <path fill="none" d="M75.45,101.66c-.18.44.24,1.5-.8,1.48l-1.61-.04c-.06-.39-.12-.79.02-1.38l2.4-.06Z"/>
          <path fill="none" d="M88.35,101.66l-.15,2.32c-.51.09-.91.05-1.27-.01.05-.55-.23-1.32.04-2.02.15-.39.95-.44,1.38-.29Z"/>
          <path fill="#f7ecd4" d="M61.41,113.15v1.45c-.48,0-.96.05-1.59-.01-.57-.06-.81-.73-.73-1.43h2.32Z"/>
          <path fill="none" d="M63.87,114.61h-2.45s-.01-1.45-.01-1.45l2.39.07c.15.59.11.99.07,1.38Z"/>
          <path fill="none" d="M46.12,38.25l-1.29.11-.16-2.34c.66-.25,1.48-.04,1.48.72,0,.49.02,1.02-.03,1.51Z"/>
          <path fill="#d9a431" d="M65.3,132.33c.27.66.06,1.49-.7,1.47l-1.61-.08c-.02-.36-.04-1.13.3-1.25.69-.23,1.46-.14,2-.15Z"/>
          <g>
            <path fill="#f7ecd4" d="M69.12,3.9l1.56-.06c.5,2.4-1.74,3.75-3.95,4.43-2.44,1.46-3.36,3.82-5.19,5.33l-.18,3.09c-1.29.18-1.69,1.33-2.41,1.92-2.77,2.26-.22,4.17-2.03,7.45,1.59,2.84-.16,5.7,1.34,7.11.76.71,1.46,1.75,3.13,1.54l-.02,3.34c1.95.29,1.88,2.55,2.7,3.48,1.65,1.87,3.39,3.37,3.95,5.65,5.3,3.2,2.18,6.16,5.04,7.02l-.13,3.99-1.34.07c0-.6-.55-1.28-.67-1.91-.46-2.43-1.37-4.26-2.97-6.21-.41-.49-.76-1.42-1.13-1.77-.33-.31.08-1.45-.18-1.95-.19-.38-.89-.39-1.25-.34-1.57.22-1.42-2.09-2.1-2.67-3.6-3.09-6.27-6.39-7.89-10.96-.45-1.26-.15-2.81-.16-4.07v-2.88c-.02-7.61,2.86-9.3,4.78-13.93.2-.47,6.72-7.62,9.1-7.66Z"/>
            <path fill="none" d="M103.71,12.93v116.44c0,1.3-.09,1.81-.79,2.44-.55.5-1.14.54-2.1.54l-34.12-.04c-.05-.19-.03-.54.08-.68.14-.16.47-.28.93-.28l35.03.02V13.23c.43-.34.75-.23.96-.3Z"/>
            <polygon fill="none" points="72.98 61.85 73.02 69.58 71.55 69.6 71.55 61.88 72.98 61.85"/>
            <path fill="none" d="M88.99,99.29c-.34.06-.63-.13-.63-.51l-.03-6.16c.31-.21,1.34-.1,1.35.4l.13,4.82c.02.92-.54,1.1-.82,1.46Z"/>
            <polygon fill="#d9a431" points="72.93 58.18 72.98 61.85 71.55 61.88 71.6 58.24 72.93 58.18"/>
            <path fill="#f7ecd4" d="M85.91,88.69l-2.98.03c-.08-.35-.04-.89.15-1.12.49-.56,2.51-.47,2.77-.02.14.24.11.82.05,1.1Z"/>
            <path fill="none" d="M66.82,48.36c0,.41-.18.53-.34.61-.18.08-1.02.05-1.07-.12-.21-.91-.09-1.89-.02-2.77.36-.05,1.06-.04,1.25.34.26.5-.15,1.63.18,1.95Z"/>
            <path fill="#d9a431" d="M73.02,69.58c0,1.32-.13,1.98-.8,2.92-.97-.7-.67-1.96-.67-2.9l1.47-.02Z"/>
          </g>
        </g>
        <path fill="none" d="M48.35,164.62c0,.29.15.6,0,1.09l-2.23.14c-.25-.65-.07-1.5.72-1.48.5.02,1.02.1,1.51.24Z"/>
        <path fill="none" d="M62.89,141.4c-.35.05-1.19.1-1.31-.3-.23-.77-.09-1.43-.1-2.07.7-.27,1.49,0,1.47.72l-.06,1.65Z"/>
        <g>
          <path fill="#f7ecd4" d="M98.27,205.57l-.02,1.5c-.65,1.63-2.26,2.88-3.59,3.87l-1.99.02c-.64,0-.42,1.02-.34,1.29-.54.39-1.27.89-1.5,1.57l-4.76.15c-.18.04-.17.59-.13.75h-10.59c-.6.01-.98.49-1.06,1.36l-8.99-6.1c-.03-.61-.04-1.8.4-2.23l1.83-1.78,3.39-1.95c.83-1.47,1.85-2.66,3.72-2.94.41-2.3,2.6-3.29,3.6-4.94.77-1.26.51-2.98,1.94-4.02.49-.36.52-1.44.49-1.9.37.05.77.1,1.29,0l.15-2.3v-2.87c.18.07.54.07.69-.04.17-.13.31-.5.3-.89l-.05-10.62-.9-1.84c.1-1.1-.59-1.83-.95-2.99l-.8-2.59-3.61-4.07c-.06-.39.09-1.32-.3-1.33l-1.64-.05c-.53-.02-1.44-.17-1.73.26-.16.24,0,.9.03,1.17-.35.01-.82.33-1.14.48-.39-.2-.87-.37-1.18-.34-.23.02,0,1.33-.24,1.51-2.42,1.8-1.45,4.95-1.19,5.06.29.12.81.08,1.15,0l.02.94-.03,4.36c0,.39.14.75.31.88.14.11.51.11.68.05v5.23c-.28-.15-.94-.04-.93.48l.05,4.47-.61.38c-1.15.72-.94,2.49-.85,3.87l-3.05,3.57c-.42.49-4.23,2.83-5.98,3.62-4.98,2.25-10.58,1.51-15.55.38l-.05-1.27c-1.25-.25-2.3-.14-3.26.33-.59-.19-1.35-.44-1.4-1.76-3.05.29-4.81-2.13-7.06-3.6-1.71-1.12-3.13-1.61-4.36-3.57-.58-.92-1.53-2.45-2.3-3.23-2.15-2.18-2.17-4.59-3.51-6.08-1.64-1.84-2.33-6.71-2.01-9.09l4.75-.05,7.8-.04c4.09-.02,6.01.54,5.68-.85.87-.58,2.29-.6,3.37-.4l-.15,2.25c-1.85-.59-3.25,1.06-4.67,1.31-1.64.28-2.57.12-3.53,1.52-1.92.27-4.84.26-6.76.04-.18-.48-.31-1.54-.97-1.41-2.96.59-1.47,9.17.75,9.65s.45,2.9,3.5,3.51c.37.07.15,1.35.44,1.67.85.94,1.84,2.13,2.47,3.21,4.16.43,6.57,3.18,8.06,3.81,3.36,1.43,5.02.76,6.17,2.26.54.72,2.72.59,3.5.15.2-.11.24-.81.24-.97s.54-.12.67-.02c.19.14.35.71.54.87.86.76,1.46-.61,1.9-.87l4.91-.4c1.52-.72,2.72-1.02,4.46-.72l-.08-2.62c1.49.1,1.32-1.62,1.76-2.09,4.77-4.15.45-7.9,3.58-8.61.02-2,.44-4.69-.15-6.82-1.94-.91-1.35-6.8-.93-7.46.93-1.45,1.67-2.63,1.02-4.78l4.36-1.14c6.72-1.75,11.96,5.92,10.31,7.72-.37.41-.72.92-.66,1.53.04.39.87.78,1.3,1.03l.33,6.4c.72.71,1.47,1.11,1.5,2.12.05,1.51-.49,1.94-1.42,2.93l-.47,6.8c-1.04,2-2.4,4.33-2.12,6.81-2.08,1.17-2.9,4.81-3.33,5.42-.95,1.36-2.8,2.9-4.17,3.89-1.78,1.29-6.29,1.94-5.51,4.77.44,1.6,3.5.88,5.82,4.67l7.56.08,1.14-1.56c1.18-.15,2.96.48,4.12-.25,1.72-1.08,3.07-3.53,5.61-3.87.8-1.31,1.7-3.35,3.63-3.42l1.27.78Z"/>
          <path fill="none" d="M102.76,198.13l-.03-53.81v-1.45c-.1-.1.95-.07.95.15v54.4c.01.55-.66.69-.92.72Z"/>
          <path fill="none" d="M85.94,214.72c.08.32.1.84-.09,1.45h-10.35c-.21-.65-.16-1.05-.15-1.44h10.59Z"/>
          <path fill="none" d="M82.15,171.64l.9,1.84.05,10.62c0,.39-.13.76-.3.89-.14.11-.51.1-.68.04l-.1-12.28c0-.23-1.37-1.14-.61-1.14l.75.03Z"/>
          <path fill="#d9a431" d="M90.82,213.82c-.11.32-.07.78-.45.8l-1.16.07-1.96,1.8c-.18-1.09-.61-1.78-1.32-1.77-.04-.16-.05-.72.13-.75l4.76-.15Z"/>
          <path fill="#d9a431" d="M76.79,162l-3.64.05c-.03-.27-.2-.94-.03-1.17.29-.43,1.2-.28,1.73-.26l1.64.05c.39.01.24.94.3,1.33Z"/>
          <path fill="#d9a431" d="M99.87,203.64c-.04,1.05.21,2.21-.16,3.27-.21.28-1.24.25-1.46.16l.02-1.5c.01-1.04.77-1.57,1.6-1.94Z"/>
          <path fill="none" d="M82.11,187.9l-.15,2.3c-.53.1-.92.06-1.29,0-.03-.58-.13-1.33.06-2.03.1-.39,1-.44,1.38-.28Z"/>
          <path fill="#d9a431" d="M94.66,210.94c.01.54-.04,1.47-.8,1.43l-1.53-.11c-.08-.27-.3-1.28.34-1.29l1.99-.02Z"/>
        </g>
      </g>
      <g>
        <path fill="#d9a431" d="M193.48,114.47c.87,2.09,3.52,2.58,5.89,5.12.03,1.39.57,2.51,1.66,3.25l.11,13.43-.71.87-1.29.8c-2.22,2.85-5.55,1.71-3.79,3.96v.97s-12.99-.18-12.99-.18c-1.19-.91-2.27-3.24-4.42-2.86.28-1.15.08-1.78-.21-2.11-.26-.3-1.56-.03-1.79-.36-.5-.88-.03-2.43-.33-3.59-1.52.34-2.74.01-3.33-1.44l-34.03-.02-.02,44.41,2.29,2.31c2-.79,2.61-.03,3.65,1.12.91,1,2.35,1.45,1.74,3.45,1.67.61,1.81,2.2,1.29,3.86,1.68.47,2.18,1.85,1.66,3.29.71,1.54-.48,2.4-1.32,2.95l-.17,5.66c.22,2.01-2.65,1.64-2.38,3.87l-1.02.52c-3-1.94-2.49,2.03-6.2,1.92l-5.19-.16c-.42-.01-.96-.86-1.3-.84-.37.02-.95.51-1.25,1-.43-.28-.47-.66-.48-.99.09-.48.03-1.16-.31-1.3-.39-.16-1.58.07-2.01-.21-.4-.27-.68-1.58-1.42-1.3-.99.37-1.16-.57-1.61-.76.14-.79.44-2.24-.15-2.83-.75-.75-1.83-1-2.04-1.65-.25-.75.2-2.36-.21-2.83-.63-.7-1.55-1.12-1.44-2.32.08-.85.89-1.16,1.4-1.78l.34-5c1.65-4.09,5.92-4.73,5.96-4.81.24-.57.22-1.35.08-2.15l3.85-1.56.05-41.83-2.01-1.93-8.05-.08c.05-.2.05-.56-.06-.7-.12-.16-.49-.36-.9-.34l-5.67.22-.06-5.44,57,.02c.54,0,.68-1.29.5-1.48.72.14,1.44-.25,1.44-.71v-1.7s.09-2.34.09-2.34c.03-.6,1.06-.65,1.42-.5,2.3.21,4.14-1.28,4.86-3.74,1.33.21,2.33-.74,3.41-.81l8.56-.52c.3-.02.68.16.93.17ZM183.4,122.14c-.22.53-1.05,1.36-1.58,1.57-.65.2-1.45.34-1.82.77-1.32,1.54-.39,9.92,1.91,9.24.31-.09.88-.09,1.14.06.59.35.23,1.12.34,1.49.21.71.83,1.58,1.4,2.32l6.68-.12c1.28-1.97,4.14-2.66,4.18-4.27l.24-9.44h-2.55c-.4-.43-1.38-.74-1.45-1.6s-.52-1.64-.85-2.2c-.43-.74-4.02-1.55-5.88.77-.19.23-1.11.18-1.38.25-.48.13-.24.84-.37,1.16ZM128.18,187.92c-.37-.03-.78-.02-1.33.14v4.63c0,.46,1.07.58,1.35.44.23.82,1.03,1.03,1.74.92l.53,1.54c.22.63.08,1.09,1,1.61,2.37,1.32,5.95,1.03,7.97-.36l2.63.08c-.66-1.74.51-2.46,1.2-3.4.55-1.39.34-3.6.13-5.08-.83-.71-1.69-1.42-1.56-2.82.08-.79-5.16-4.67-6.26-4.57-1.23.1-1.97.08-2.51,1.77-3.64-.98-3.55,1.24-4.52,1.51-.1.03-.21.04-.32.02l-.06,3.56ZM128.08,183.78c.16-.45.06-.83-.23-1.01-.41-.25-.88-.22-1.13.11-.3.39-.08.91.41,1.01l.76.15.18-.26Z"/>
        <path fill="#d9a431" d="M195.35,142.87l.03,1.5c-.45.35-1.02.92-1.91.92l-12.47-.04c-1.71-2.34-3.56-4.71-6-5.65-.61-1.6-1.87-2.85-2.95-4.57-.43-.64-.27-1.62-1.94-1.33-.67.12-1.35.3-.98,1.47h-25.74c.18-.34.15-1.17-.38-1.29-1.13-.25-2.14-.25-3.32,0v42.39c.95.27,1.61.18,2.29.17.56.87,2.23.64,2.99,1.37,2.82,2.72,3.06,5.11,4.72,4.94l.13,2.42-.09,10.48-.88,2.37c-.18.5-.13,1-.43,1.24-.23.18-.74.19-1.06.11l.17-5.66c.85-.55,2.04-1.4,1.32-2.95.51-1.44.02-2.82-1.66-3.29.53-1.65.39-3.25-1.29-3.86.61-2.01-.83-2.45-1.74-3.45-1.04-1.15-1.65-1.91-3.65-1.12l-2.29-2.31.02-44.41,34.03.02c.59,1.46,1.82,1.78,3.33,1.44.3,1.16-.17,2.71.33,3.59.24.32,1.54.06,1.79.36.28.33.49.96.21,2.11,2.15-.38,3.24,1.95,4.42,2.86l12.99.18Z"/>
        <path fill="#d9a431" d="M121.96,132.34l8.05.08,2.01,1.93-.05,41.83-3.85,1.56c.15.8.17,1.59-.08,2.15-.03.08-4.31.72-5.96,4.81l-.34,5c-.52.62-1.32.93-1.4,1.78-.11,1.19.81,1.61,1.44,2.32.42.47-.03,2.08.21,2.83.22.65,1.29.9,2.04,1.65.59.59.29,2.03.15,2.83-2.5-1.08-1.75-3.65-3.67-3.24.07-.26-.17-.85-.44-.85l.39-2.44c.1-.61-1.01-.79-1.37-.62l-.04-.77-.04-4.85c1.8-.59,1.44-2.24,1.59-3.7l1.37-1.29c.3-.28.1-1.41-.56-1.65.36-.44.52-1.68,1.49-1.44.84.21,1.23-.37,1.85-1.02l2.84-2.96c.35-.37,1.7.23,1.91-.2.18-.36,1.04-1.11,1.04-1.71l-.03-40.78-9.88.21c-.15.64-.11,1.05-.09,1.4-1.51,0-3.52.26-5.07-.15-.17-.55-.6-1.57-1.2-1.27v-1.47s7.7.05,7.7.05Z"/>
        <path fill="none" d="M143.4,135.18l-2.28.13v37.61c1.14,1.06,1.14,2.3.87,3.51-.68.01-1.34.1-2.3-.17v-42.39c1.19-.24,2.2-.24,3.33,0,.54.12.56.95.38,1.3Z"/>
        <path fill="none" d="M122.9,180.24l.02-2.83,2.72-.15c1.06-1.76,2.38-2.99,4.01-4.24l-.02-37.8-9.09-.04c-.02-.35-.06-.76.09-1.4l9.88-.21.03,40.78c0,.6-.86,1.35-1.04,1.71-.22.43-1.56-.17-1.91.2l-2.84,2.96c-.62.64-1,1.23-1.85,1.02Z"/>
        <path fill="#d9a431" d="M198.75,115.56l2.39,2.79c-.08.64-.12,1.51.06,2.14.1.37.9.47,1.31.3,1.49.3.96,1.82.97,2.88l.05,10.09c0,.98.31,2.2-1.01,2.44l-1.36.07-.11-13.43c-1.09-.73-1.62-1.86-1.66-3.25-2.38-2.54-5.03-3.04-5.89-5.12,1.9-.08,2.99,1.62,5.27,1.09Z"/>
        <path fill="none" d="M143.96,203.74c.03,2.69-2.29.96-3.34,3.32l-11.37.03c-.99-1-2.04-1.35-2.58-2.38l2.87-.04c.01.34.06.71.48.99.29-.49.88-.97,1.25-1,.35-.02.88.82,1.3.84l5.19.16c3.71.11,3.19-3.86,6.2-1.92Z"/>
        <path fill="none" d="M144.99,203.22c-.28-2.22,2.6-1.86,2.38-3.87.32.09.83.08,1.06-.11.3-.24.25-.75.43-1.24l.88-2.37.09-10.48c.28-.07.88-.2,1.12-.05.68.4-.28,2.71.61,3.11.27.12.97-.04,1.1.72l-1.43.87.06,7.76c-3.18,1.34-2.18,6.3-6.3,5.67Z"/>
        <path fill="#d9a431" d="M193.4,112.72c-.04.11-.02.33,0,.49-.52,0-.88.53-.85,1.08l-8.56.52c-1.08.07-2.08,1.01-3.41.81-.72,2.46-2.56,3.95-4.86,3.74,1.77-4.78,5.97-3.8,8.3-6.07,3.47.02,6.48-.72,9.38-.57Z"/>
        <path fill="none" d="M203.52,133.76l-.05-10.09c.39,0,.81-.05,1.48.13v9.88c-.65.17-1.06.1-1.43.08Z"/>
        <path fill="#d9a431" d="M201.08,139.03c-.74.57-1.86,1.53-2.21,2.43-1.29-.13-2.49-.11-3.53.43-1.76-2.25,1.57-1.11,3.79-3.96l1.29-.8c.88.11.89,1.2.65,1.89Z"/>
        <path fill="none" d="M124.19,201.09c.45.2.62,1.14,1.61.76l-.06,1.34c-1.6.75-2.26-.67-3.3-1.35-1.7-1.1-2.41-2.06-1.91-3.99,1.92-.41,1.17,2.15,3.67,3.24Z"/>
        <path fill="none" d="M198.87,141.46c-.55,1.43-1.89,3.07-3.49,2.91l-.03-1.5v-.97c1.03-.55,2.23-.56,3.52-.43Z"/>
        <path fill="#d9a431" d="M129.55,204.67l-2.87.04c-.25-.47-.96-.91-.95-1.51l.06-1.34c.74-.28,1.02,1.03,1.42,1.3.43.28,1.62.05,2.01.21.34.14.4.83.31,1.3Z"/>
        <path fill="none" d="M202.5,136.19c.05.78.29,1.8-.15,2.66-.18.36-1.07.2-1.28.17.24-.69.23-1.78-.65-1.89l.71-.87,1.36-.07Z"/>
        <path fill="none" d="M172.06,135.03l-2.92.14c-.38-1.17.31-1.35.98-1.47,1.66-.29,1.5.69,1.94,1.33Z"/>
        <path fill="none" d="M202.5,120.78c-.41.18-1.21.08-1.31-.3-.18-.63-.14-1.5-.06-2.14.48.07,1.41-.04,1.45.8.03.55,0,1.06-.08,1.64Z"/>
        <path fill="none" d="M120.08,197c-.26,0-.99.05-.99-.47v-2.59c.37-.17,1.48,0,1.37.62l-.39,2.44Z"/>
        <path fill="#d9a431" d="M172.77,124.61c.17.19.04,1.48-.5,1.48l-57-.02.06,5.44,5.67-.22c.41-.02.78.18.9.34.11.14.11.5.06.7l-7.69-.05.04-7.71,58.47.04Z"/>
        <path fill="#d9a431" d="M139.44,196.85c.76-1.7,1.84-.93,1.69-3.72-.06-1.07.25-2.74-.34-3.82-.32-.58.29-1.68.36-2.33-.16-.85-1.08-.51-1.45-.55-.57-.06-1.34-.86-1.42-1.4l-.1-.68c-.03-.18-.44-.33-.82-.33l-4.97.07c-.46,0-.55,1.08-.36,1.4.09.14.04.56-.05.71-.16.27-.62.36-.92.26-1.48-.47-1.37,1.63-2.87,1.45l.06-3.56c-.06-.16-.21-.29-.35-.31l-.76-.15c-.49-.1-.71-.62-.41-1.01.25-.33.72-.37,1.13-.11.29.18.39.56.23,1.01l.49.56c.96-.27.87-2.49,4.52-1.51.54-1.68,1.28-1.66,2.51-1.77,1.09-.09,6.33,3.79,6.26,4.57-.14,1.4.73,2.11,1.56,2.82.21,1.48.42,3.69-.13,5.08-.69.94-1.86,1.66-1.2,3.4l-2.63-.08Z"/>
        <path fill="#d9a431" d="M183.39,135.28c.56-.03,1.65-.37,2.22-.16,1.55.56,2.75.43,4.1.23,1.63-.25,2.13-.44,3.42-2.02.78-.96,2.27-1.61,1.69-3.19-.14-.4.06-1.16.05-1.64-.07-2.87.51-2.54-1.54-4.73h2.55s-.24,9.45-.24,9.45c-.04,1.61-2.89,2.3-4.18,4.27l-6.68.12c-.57-.74-1.19-1.61-1.4-2.32Z"/>
        <path fill="none" d="M186.98,122.36c.95,2.2-1.54.48-3.12,2.11-.87.9-.39,2.25-.6,3.53-.07.44-1.44.77-1.44,1.21,0,.7.62,1.06,1.05,1.68l1.76,2.5c.51.72,1.31.9.97,1.73-.57-.21-1.66.13-2.22.16-.11-.37.25-1.15-.34-1.49-.27-.16-.83-.15-1.14-.06.55-1.32-.43-2.08-1.26-2.82-.46-1.35-.11-2.92-.2-4.38,1.37-.49,1.82-1.53,1.38-2.81.53-.21,1.36-1.04,1.58-1.57l3.58.23Z"/>
        <path fill="#d9a431" d="M191.89,122.16c-.64.06-1.4-.06-2.17.28-.25.21-.18,1.01-.1,1.23-1.01.11-.74-1.21-2.63-1.31l-3.58-.23c.14-.32-.1-1.03.37-1.16.26-.07,1.19-.01,1.38-.25,1.87-2.32,5.45-1.52,5.88-.77.33.56.78,1.37.85,2.2Z"/>
        <path fill="none" d="M141.13,193.13c.14,2.78-.94,2.02-1.69,3.72-2.02,1.39-5.6,1.68-7.97.36-.92-.51-.78-.98-1-1.61.87-.06,1.88-.31,2.77.23l.5,1.16c.11.25,1.11-.39,1.31-.98l1.95,1.23c.69-2.18,2.1-3.86,4.14-4.11Z"/>
        <path fill="none" d="M131.05,186.47c.1,2.38-2.54,3.42-1.11,7.59-.71.11-1.52-.1-1.74-.92l-.02-5.21c1.5.18,1.39-1.93,2.87-1.45Z"/>
        <path fill="#d9a431" d="M181.82,123.71c.44,1.28,0,2.32-1.38,2.81.09,1.47-.26,3.03.2,4.38.83.74,1.81,1.5,1.26,2.82-2.3.68-3.23-7.7-1.91-9.24.37-.43,1.17-.57,1.82-.77Z"/>
        <path fill="#d9a431" d="M128.18,187.92l.02,5.21c-.28.14-1.35.02-1.35-.44v-4.63c.56-.16.97-.17,1.33-.14Z"/>
        <path fill="none" d="M191.89,122.16c.06.86,1.05,1.17,1.45,1.59,2.05,2.2,1.47,1.86,1.54,4.73-.46.17-1.28.09-1.39-.3-.36-1.27.41-3.34-.32-3.44l-1.47-.21c-.86-.12-1.34-.95-2.08-.87-.08-.22-.15-1.03.1-1.23.78-.34,1.53-.22,2.17-.28Z"/>
        <path fill="#d9a431" d="M174.2,122.19v1.7c.01.46-.71.86-1.43.71-.02-.59,0-1.11,0-1.64,0-.75.69-1.07,1.43-.78Z"/>
        <path fill="none" d="M138.27,185.03c-2.13-.05-4.27-.34-6.25.46-.19-.32-.11-1.39.36-1.4l4.97-.07c.38,0,.8.15.82.33l.1.68Z"/>
        <path fill="none" d="M140.79,189.31c-.13.11-.89.12-.95-.08-.33-1.02-.16-1.93-.14-2.81.38.04,1.29-.3,1.45.55-.07.65-.68,1.75-.36,2.33Z"/>
        <path fill="none" d="M194.82,130.13c.58,1.58-.91,2.23-1.69,3.19-1.29,1.58-1.79,1.77-3.42,2.02.21-1.9,1.85-3.29,3.84-3.19-.24-.97-.17-1.79.11-2.18.17-.24.98.06,1.16.16Z"/>
      </g>
      <g>
        <path fill="none" d="M152.7,91.11c-.46.46-.83.87-1.72,1.42-.43.27-.7,1.17-1.13,1.46l-.06-2.83,2.91-.05Z"/>
        <path fill="none" d="M162.72,81.08c-.81.83-1.55,1.56-2.36,2.38v-2.35s2.36-.03,2.36-.03Z"/>
        <g>
          <path fill="#d9a431" d="M143.49,38.36l1.54.12c-.1.36.11,1.13-.41,1.3s-1.26-.29-1.71.07l-1.8,1.35c0-.3.15-.86-.02-1.1-.22-.33-.91-.43-1.41-.1v60.2c-.26.21-1.46.15-1.46-.5l.03-61.17,5.23-.16Z"/>
          <path fill="none" d="M141.12,41.2l.07,56.9c0,1.2,1.66,2.39,2.32,2.11.14.15.17,1.14-.14,1.26-1.21.45-2.49.16-3.6.23l-.09-1.51v-60.2c.51-.33,1.2-.23,1.42.1.16.24.02.81.02,1.1Z"/>
          <path fill="none" d="M129.6,38.39c0,.29-.12.9.04,1.18.18.31.59.38.95.31l-.02,61.8-11.04-.12c-1.9-.02-3.65.29-5.26-.31-.07-.17-.09-.73.12-.99l13.22-.04,1.99-1.97v-56.39c0-1.4-3.35-1.67-2.81-3.54.71.38,2.01.06,2.81.08Z"/>
          <path fill="#d9a431" d="M143.51,11.5c.15,1.35,2.07,1.52,3.25,1.72.75.42,2.09,1.8,2.68,2.43.77,1.05.29,2.69.3,3.67l.09,11.01c0,.49,1.06.51,1.36.3-.1,2.5-2.52,2.09-3.56,3.13-.76.77.22,3.06-.6,3.6-.27.17-.8.16-1.16.05.07-.2.07-.68-.08-.98-.11-.21-.48-.33-.74-.36-.45-1.66.28-2.82,1.71-4.02l2.15-1.81-.29-6.86c-.68-.27-1.47-.76-1.35-1.5.14-.84.52-1.23,1.98-1.68-1.68-.78-2-1.98-2.15-3.14-.37-.27-1.55-.07-1.89-.29s-.02-1.3-.22-1.87c-1.03-2.91-5.31-.73-5.55-3.28l-9.39.16c-1.93,2.89-6.02,1.91-5.56,3.71.4,1.54-1.18,2.14-1.4,2.86-.39,1.27-.25,3.15-1.15,4.23-.18.22.08,1.35-.06,1.63-.17.34-.72.53-1.27.31-.42.05-.81.04-1.19-.06-.28-.08-.49-.74-.31-1.05s1.95.32,1.31-4.95c1.32-.92,1.45-1.69,1.65-3,.22-1.45,1.07-2.29,2.45-2.83.61-.24,1.33-1.58,2.18-1.09,1.65.96,2.55-.86,3.48-1.07,3.2-.74,7.26-.18,10.42-.35.76.89,1.57,2,2.92,1.38Z"/>
          <path fill="none" d="M143.51,11.5c-1.35.62-2.16-.49-2.92-1.38-3.16.17-7.22-.39-10.42.35-.93.21-1.83,2.03-3.48,1.07l.14-2.83c1.82-.23,4.26.53,5.89-.22,1.95-.9,3.3-1.23,5.3.12l3.94.2c-.19.4-.22,1.26.05,1.28.61.05,1.09.12,1.4.38.27.22.05.76.08,1.03Z"/>
          <path fill="none" d="M122.08,15.45c-.2,1.32-.33,2.09-1.65,3,.64,5.27-1.12,4.62-1.31,4.95s.03.98.31,1.05c.38.1.77.12,1.19.06l-.04.84.02,4.91c0,.53,1.07.65,1.42.51.05,1.5.99,3.29,2.28,3.78.16.83-.12,1.68-.97,2.01l-1.12-.63c-.24-.13-.37-.98-.29-1.25.43-1.45-.88-1.51-1.35-2.03-1.75-1.94-1.62-4.7-1.38-7.22-1.53-1.71-1.62-3.92.03-5.63-.89-2.25.99-4.19,2.87-4.36Z"/>
          <path fill="none" d="M151.19,30.63c-.3.22-1.36.19-1.36-.3l-.09-11.01c.3-.19,1.43-.15,1.43.33.03,2.59.27,4.81.17,7.2l-.15,3.78Z"/>
          <path fill="#d9a431" d="M129.6,38.39c-.8-.02-2.11.3-2.81-.08-1.16-.62-2.32-1.11-3.47-1.75.85-.34,1.13-1.18.97-2.01,2.05-.37,3.5,1.75,5.31,3.84Z"/>
          <path fill="none" d="M145.87,37.41c.17.76-.55.84-.83,1.07l-1.54-.12c.24-1.15,2.15-.82,1.56-2.29.26.03.63.15.74.36.15.3.15.77.08.98Z"/>
          <path fill="#d9a431" d="M145.05,36.07c.59,1.47-1.32,1.14-1.56,2.29l-5.23.16-.03,61.17c0,.65,1.2.71,1.45.5l.09,1.51c.02.26-.12.94.08,1.26,1.54.35,2.94.13,4.74.11,1.03-2.17,2.85-3.65,4.62-5.25l6.38-6.61c2.76-.5,4.64-2.68,5.37-5.2l7.19-7.64c1.16-1.23,1.39-2.89,3.46-2.77.33-1.03,1.87-2.01,2.37-2.69.22-1.3.42-2.29,1.58-2.96.26-.77.35-2.88-.05-3.59-1.08-.9-1.43-1.45-1.36-3.08.07-1.43-.25-2.75,1.62-3.28-.1-1.48-.29-3.35.05-4.63.42-.21,1.52-.18,1.9-.31s.16-1.4.5-1.64c1.03-.74,1.68-2.37,2.59-3.13s2.89-.43,3.3-1.57c-.07,2.27.63,4.06-.03,5.9-.24.66-.97,1.29-.7,1.92.12.53.04.93-.12,1.23-.19.34-.64.52-1.21.51l-1.49-.03v8c0,.39.76.47,1.12.35.51-.17,1.13-.1,1.4.06.33.19.49.78.38,1.33-.09.46-.09,1.02.06,1.25s.91.21,1.2.39c1.74,1.08,3.34.74,5.4.88l1.15.08c.33.02.92-.1.66-.88-.16-.48-.12-1,.09-1.22s.6-.48,1.28-.32c.75-.03,1.47,0,2.4-.27-.13-1.11.22-2.08,1.48-2.42l.07-5.91-1.35-1.21c-.33-.75-.48-2.76-1.59-2.97-1.23-.23-2.35-.09-2.8-1.65l-4.19-.02.02-4.64,4.64-.1c1.67-.04,2.27,1.38,3.25,1.97,2.35,1.42,4.95,2.59,4.44,5.2l2.75,2.51c.24,1.5.55,3.62-.13,5.15-.35.79-1.89,1.25-1.2,2.97.52,1.3-.24,2.74-1.18,3.38-.25.17-.2,1.21-.36,1.47-.21.34-1.3.34-1.74.48-.68.81-1.32,1.87-2.76,1.48l-.32,2.17-14.69.04c-1.1,1.38-2,2.5-3.2,3.67l-21.92,21.54c.88,2.56-1.36,2.2-4.88,3.41-.81.68-.96,2.51-2.54,2.69l-.29,2.24-31.98-.02c-.13-1.58-.44-3.26.14-4.79.45-1.19,2.45-1.45,3.62-1.44l8.23.05c.54,0,1.12.48,1.56.87,1.03-.61,1.89-.88,3.23-1.04v-62.92c-.57-.28-1.1-.24-1.41-.17-.36.07-.76,0-.95-.31-.17-.28-.05-.89-.04-1.18-1.81-2.08-3.26-4.21-5.31-3.84-1.29-.49-2.22-2.28-2.28-3.78l-.17-4.82c-.02-.61-.92-.74-1.27-.6l.04-.84c.55.21,1.1.03,1.27-.31.14-.28-.12-1.41.06-1.63.9-1.07.76-2.96,1.15-4.23.22-.72,1.8-1.31,1.4-2.86-.46-1.8,3.62-.82,5.56-3.71l9.39-.16c.24,2.55,4.52.38,5.55,3.28.2.57-.12,1.65.22,1.87s1.52.03,1.89.29c.15,1.16.47,2.36,2.15,3.14-1.46.45-1.85.83-1.98,1.68-.12.74.67,1.23,1.35,1.5l.29,6.86-2.15,1.81c-1.43,1.2-2.17,2.36-1.71,4.02ZM127.92,28.29c.54-.14.98-.05,1.32.13.24.13.33.69.37.94l.11,2.51c2.93,1.07,5.75,1.87,8.5.85,4.47-1.66,3-3.7,5.29-4.97-.16-2,.4-4.58-.22-6.53-.28-.73-2.13-1.35-1.29-2.96-.46-.18-.88-.24-1.07-.25.2.66-.05.98-.18,1.11-.22.21-.81.24-1.19.54l-1.18-1.75c-.29-.44-.24-.89-.5-1.01-.91-.43-7.15-.66-9.46,3.04l-1.43,2.29c-.51,3.69-.74,6.49.92,6.05Z"/>
          <path fill="#d9a431" d="M122.01,30.77c-.35.14-1.42.03-1.42-.51l-.02-4.91c.35-.14,1.24-.02,1.27.6l.17,4.82Z"/>
          <path fill="none" d="M138.39,17.93l1.18,1.75c1.66,1.79,3.24,4.35,2.13,6.96l-.91,2.13c-.71,1.02-2.01,2.49-3.21,3.14s-3.74.47-4.98.02-1.82-2.3-2.98-2.56c-.04-.25-.13-.81-.37-.94-.35-.18-.78-.28-1.32-.13l.26-6.47c.55-.05,1.09.05,1.3.18s.17.8.16,1.07c-.08,1.2-.34,3.06.63,4.3.88,1.12,2.22,2.16,4.05,2.01-.07.49-.22.97-.16,1.21.06.28.92.17,1.24.22,1.25.21,1.84-.46,2.47-1.44.85-1.32,3.35-2.55,3.32-3.19-.03-.53-.75-.75-1.34-.89l-.34-4.5c-.22-.42-1.63.25-1.72,1.14-.81-1.01-.48-1.64-.52-2.66h-5.28c.05-.31-.12-1.37.48-1.39l5.92.05Z"/>
          <path fill="#d9a431" d="M129.62,29.37c1.15.27,1.75,2.12,2.98,2.56s3.83.61,4.98-.02,2.5-2.12,3.21-3.14l.91-2.13c1.12-2.61-.47-5.17-2.13-6.96.38-.3.97-.33,1.19-.54.13-.13.38-.45.18-1.11.19,0,.61.07,1.07.25-.85,1.61,1.01,2.23,1.29,2.96.62,1.95.06,4.53.22,6.53-2.28,1.27-.82,3.31-5.29,4.97-2.75,1.02-5.57.22-8.5-.85l-.11-2.51Z"/>
          <path fill="#d9a431" d="M138.39,17.93l-5.92-.05c-.61.01-.43,1.07-.48,1.38-.5.9.11,2.57.09,3.71-1.08.25-1.73.1-2.44.1.02-.26.05-.94-.16-1.07s-.76-.23-1.3-.18l-.26,6.47c-1.67.44-1.44-2.36-.92-6.05l1.43-2.29c2.31-3.7,8.55-3.47,9.46-3.04.26.12.2.57.5,1.01Z"/>
        </g>
        <g>
          <path fill="#d9a431" d="M193.29,68.15l.14-1.3c.22-2.12,2.9-3.93.62-7.07-.24-.32-.5-1.19-.53-1.64-.18-2.41-1.51-.73-2.81-2.74-1.08-.37-3.14-.51-4.46.04-.7.36-1.16,1.96-2.86,1.08-.27-.62.47-1.26.7-1.92.66-1.84-.04-3.63.03-5.9-.41,1.14-2.35.78-3.3,1.57s-1.56,2.39-2.59,3.13c-.34.25-.13,1.53-.5,1.64s-1.49.1-1.9.31c-.34,1.28-.15,3.15-.05,4.63-1.87.53-1.56,1.86-1.62,3.28-.07,1.63.27,2.18,1.36,3.08.4.71.31,2.82.05,3.59-1.16.67-1.36,1.66-1.58,2.96-.5.68-2.04,1.65-2.37,2.69-2.08-.12-2.31,1.54-3.46,2.77l-7.19,7.64c-.73,2.52-2.61,4.71-5.37,5.2l-6.38,6.61c-1.77,1.59-3.59,3.08-4.62,5.25-1.8.02-3.2.24-4.74-.11-.21-.32-.07-.99-.08-1.26,1.12-.08,2.39.21,3.6-.23.3-.11.27-1.11.14-1.26,1.99-2.17,3.93-4.54,6.34-6.22.43-.3.7-1.2,1.13-1.46.89-.55,1.26-.96,1.72-1.42l7.66-7.65c.82-.82,1.56-1.55,2.36-2.38l4.99-5.1c.31-.32,1.54-.15,1.63-.52l.34-1.36c.23-.92,1.42-1.65,2.16-2.09,1.73-1.01,2.98-2.52,2.3-4.9-.15-.53-.85-.64-1.32-.47l-.02-.94.16-7.07c1.02-.56,1.51-2.05,1.48-3.16.32-.29,1.13-.69,1.2-1.03.11-.5.17-1.04-.46-1.13.11-.27.45-.34.57-.46l3.88-3.92c1.01-1.02,2.5-1.59,3.73-2.39-.06.04-.07.84.11.9l10.93-.06,1.01,1.53c2.46.07,3.82,1.81,4.57,3.98,1.08-.34,1.83-.54,2.56-.49.24,1.37.24,4.03,1.29,5.26.62.72,1,.66,1.03,1.52-.48-.22-1.3.06-1.3.82v7.87c.01.52.08,1.6-.17,2.18-.2.45-.97.68-1.78.97.01,2.33-1.18,3.74-2.87,4.78.22-.43.1-1.31-.27-1.42-1.28-.37-3.96,1.42-3.53,2.96-.4.02-.82.36-1.15.56-.36-.46-.96-.7-1.75-.7l-11.15.05c-.7,0-.65,1.43-.05,1.61-2.27.21-3.19,3.69-4.53,4.22-1.69.66-2.7,2.87-3.8,3.74-1.55,1.21-2.45,2.33-3.76,3.65l-3.81,3.84c-1.4,1.41-3.11,2.56-4.44,4.19-1.44,1.76-2.57,3.9-4.32,5.19-.78.58-2.3.63-2.48,1.82-1.51-.37-2.12.29-3.13,1.31l-2.12,2.15c-.57.58-1.25.91-1.01,1.78-.21.65-.5,1-1.48,1l-30.26-.03c-.85,0-1.23-.48-1.47-.99l.05-9.03c0-.13.04-.35,0-.46,1.62.61,3.36.29,5.26.31l11.04.12.02-61.8c.31-.06.84-.1,1.42.17v62.92c-1.35.16-2.21.44-3.24,1.04-.43-.39-1.02-.87-1.56-.87l-8.23-.05c-1.17,0-3.17.25-3.62,1.44-.57,1.52-.26,3.2-.14,4.79l31.98.02.29-2.24c1.58-.18,1.73-2.01,2.54-2.69,3.52-1.21,5.75-.85,4.88-3.41l21.92-21.54c1.2-1.18,2.1-2.29,3.2-3.67l14.69-.04.32-2.17c1.45.39,2.09-.67,2.76-1.48.44-.13,1.53-.13,1.74-.48.16-.25.11-1.3.36-1.47.94-.64,1.71-2.08,1.18-3.38-.69-1.72.85-2.18,1.2-2.97.68-1.53.36-3.64.13-5.15l-2.75-2.51c.51-2.62-2.09-3.79-4.44-5.2-.98-.59-1.58-2.01-3.25-1.97l-4.64.1-.02,4.64,4.19.02c.45,1.56,1.57,1.42,2.8,1.65,1.11.21,1.26,2.22,1.59,2.97l1.35,1.21-.07,5.91c-1.26.34-1.61,1.31-1.48,2.42-.94.27-1.65.24-2.4.27Z"/>
          <path fill="none" d="M114.27,101.7l-.05,9.03c-.21.08-1.35.17-1.35-.4l-.03-8.56c.64-.17,1.05-.1,1.44-.06Z"/>
          <path fill="none" d="M153.7,105.51c-.13.85-.39,1.51-1.37,2.11-2.1,1.28-2.48,3.79-4.89,3.13-.25-.87.44-1.2,1.01-1.78l2.12-2.15c1.01-1.02,1.62-1.68,3.13-1.31Z"/>
          <g>
            <path fill="none" d="M202.53,52.4c-.73-.05-1.49.15-2.56.49-.74-2.17-2.11-3.91-4.57-3.98l-1.01-1.53-10.93.06c-.17-.07-.17-.87-.11-.9.46-.29,1.14-.48,1.88-.48l10.47.02-.13,1.18c.05-.48,2.12,2.03,4.04,1.8.07.54-.08,1.64.13,2.01.4.72,2.21-.15,2.77.53.18.22-.02.62.01.79Z"/>
            <path fill="none" d="M193.78,77.9c0,.12.05.39-.04.5-.49.65-7.64-.03-12.92.46-.6-.19-.64-1.61.05-1.61l11.15-.05c.79,0,1.39.23,1.75.7Z"/>
            <path fill="none" d="M204.85,59.18c.11,2.8.44,5.86-.05,8.83-.18.25-1.05.05-1.24-.14v-7.87c-.01-.76.81-1.03,1.29-.82Z"/>
            <path fill="none" d="M171.84,72.01c-.1-1.87-.03-3.81.99-5.37.47-.18,1.17-.06,1.32.47.67,2.38-.57,3.89-2.3,4.9Z"/>
            <path fill="none" d="M198.73,75.8c.17.29.07,1.36-.48,1.38l-3.33.16c-.43-1.54,2.25-3.33,3.53-2.96.38.11.49.99.27,1.42Z"/>
            <path fill="none" d="M172.8,65.71c-1.39.57-1.58-4.87-.6-7.34.5-1.25,1.21-2.05,1.16-3.68-.02-.76,1.3-1.28,1.81-1.37.64.09.57.63.46,1.13-.07.34-.89.74-1.2,1.03.04,1.11-.46,2.6-1.48,3.16l-.16,7.07Z"/>
            <path fill="none" d="M193.52,58.14c-1.01-.14-2.34.21-3.45-.18-.61-.78-.98-1.62-2.17-1.45-.63.09-4.21,2.46-4.29,2.59-.42.72-.9,5.79.85,7.64s5.89,2.19,6.93.18c.23-.45,1.62-.33,2.03-.07l-.14,1.3c-.68-.16-1.07.09-1.28.32s-.25.75-.09,1.22l-5.91-.2c-.35-1.5-1.53-1.62-2.56-1.52.11-.54-.05-1.13-.38-1.33-.27-.16-.88-.22-1.4-.06l.36-8.32c.57.01,1.03-.17,1.21-.51.16-.3.24-.7.12-1.23,1.7.88,2.17-.71,2.86-1.08,1.33-.55,3.38-.41,4.46-.04,1.3,2.01,2.63.33,2.81,2.74Z"/>
            <path fill="#d9a431" d="M182.05,58.26l-.36,8.32c-.36.12-1.13.04-1.13-.35v-8s1.49.03,1.49.03Z"/>
            <path fill="#d9a431" d="M191.93,69.69c.27.77-.32.9-.66.88l-1.15-.08c-2.06-.14-3.66.2-5.4-.88-.28-.18-1.06-.16-1.2-.39s-.15-.79-.06-1.25c1.02-.1,2.2.03,2.56,1.52l5.91.2Z"/>
          </g>
        </g>
      </g>
    </g>
    <g>
      <path fill="#d9a431" d="M336,151.51l-.23-67.54-26.4,66.94-18.59.09-26.51-67.3-.37,67.79h-31.1s-.02-116.39-.02-116.39h39.62s26.69,64.92,26.69,64.92c.34.63.69.72,1.11.72.52,0,.96-.38,1-1.26l26.48-64.43,39.46.07v116.38s-31.13.02-31.13.02Z"/>
      <path fill="#d9a431" d="M886.05,156.75c.88,6.32,6.66,7.73,12.76,7.76,3.7.02,6.93-.38,10.15-2.55,2.6-1.75,4.05-4.98,4.06-8.3l.06-17.31c-2.42,4.55-5.12,8.28-9.73,10.63-9.4,4.79-20.53,4.76-30.23.47-5.99-2.65-10.38-7.09-13.75-12.68-4.02-6.67-5.28-14.36-5.87-22.09l.04-10.04c.03-6.69,1.56-13.23,4.32-19.34,2.29-5.06,5.49-9.24,9.68-12.93,5.03-4.42,11.61-6.61,18.27-7.13,11.92-.93,22.21,5.12,26.72,16.58l.21-15.54h31.71s-.26,90.8-.26,90.8c-.02,6.33-3.09,12.15-6.83,16.58-7.66,9.06-19.32,13.17-31.02,14.1h-15.55c-7.56.02-19.15-4.13-25.41-9.5-5.82-4.99-9.67-11.76-9.84-19.51h30.5ZM912.99,104.34c-.52-4.89-1.57-9.62-5.01-13.32-3.95-4.25-11.78-4.48-15.97-.9-6.04,5.16-6.27,15.68-5.47,23.86.4,4.14,2.02,8.42,5.04,11.06s6.86,3.54,10.76,2.61c9.2-2.2,11.63-14.03,10.64-23.31Z"/>
      <path fill="#d9a431" d="M392.98,150.81c-9.85-3.59-15.68-12.92-14.75-23.29-.88-9.77,4.19-18.52,12.84-23.12,11.31-5.98,25-4,34.85-7.19,2.93-.95,4.49-3.07,4.15-6.12-.15-1.31-.24-2.58-1.39-3.5-2.93-2.36-6.93-3.15-10.59-2.15-4.13.48-7.11,3.17-7.46,7.55l-29.22.05c1.12-17.48,15.55-28.07,32.43-29.49h15.51c4.6.01,8.9,1.52,13.12,3.15,7.19,2.78,13.51,7.63,17,14.54,1.47,2.92,2.52,6.2,2.53,9.6l.18,60.65h-29.77s-.09-12.14-.09-12.14l-4.62,6.01c-5.28,5.53-12.67,7.61-20.25,7.64-5.03.02-9.49-.39-14.47-2.2ZM409.59,130.36c2.01,2.17,4.8,2.47,7.45,2.52,6.62.12,12.73-4.42,13.35-11.08l.06-8.14c-6.8,3.26-14.94,2.32-19.54,5.87-3.27,2.52-4.32,7.59-1.32,10.84Z"/>
      <path fill="#d9a431" d="M838.46,131.91c-7.51,13.87-20.37,20.08-35.84,21.32-7.38.59-14.79-.4-21.85-2.68-5.29-1.71-9.8-4.45-13.96-8.2-8.9-8.02-13.12-19.58-13.62-31.45l-.02-5.06c-.02-5.61,1.19-10.75,3.16-16.16,4.41-12.16,14.61-21.2,27.06-24.68,5.17-1.44,9.81-1.69,15.16-1.77,10.74-.17,21.28,2.38,29.76,9.21l6,5.93c11.62,13.94,12.58,37.98,4.15,53.54ZM792.86,128.03c5.03,3.19,10.86,2.05,14.17-2.62,7.78-10.97,5.49-36.64-5.76-38.88-3.71-.74-7.04-.05-9.8,2.5-8.4,7.79-8,33.06,1.38,39Z"/>
      <path fill="#d9a431" d="M615.26,153.21l-9.48.02c-8.45-.68-16.75-2.2-24.01-6.59-8.58-5.19-14.25-13.39-15.01-23.43h31.54c.16,2.77,1.72,4.38,3.67,6.26,6.5,4.2,18.86,2.72,18.9-3.12.03-3.95-5.18-5.26-9.85-6.11l-18.26-3.33c-15.22-2.78-26.05-13.2-23.74-29.2,1.22-8.48,6-15.11,13.73-19.04,5.59-2.85,11.75-4.62,18.23-5.11h16.48c17.41,1.46,32.72,11.06,33.3,29.49h-29.2c-.44-4.13-3.16-7.01-7.02-7.98-4.51-1.34-9.29-.94-13.18,1.84-2.01,2.3-.96,5.84,1.76,7.19,2.54,1.26,5.21,1.61,7.98,2.11l15.43,2.77c12.86,2.31,25.21,7.73,26.43,21.58.85,9.62-3.66,18.42-11.53,24.13-7.56,5.49-16.64,7.7-26.18,8.52Z"/>
      <path fill="#d9a431" d="M521.21,153.21l-9.48.02c-8.45-.68-16.75-2.2-24.01-6.59-8.58-5.19-14.25-13.39-15.01-23.43h31.54c.16,2.77,1.72,4.38,3.67,6.26,6.5,4.2,18.86,2.72,18.9-3.12.03-3.95-5.18-5.26-9.85-6.11l-18.26-3.33c-15.22-2.78-26.05-13.2-23.74-29.2,1.22-8.48,6-15.11,13.73-19.04,5.59-2.85,11.75-4.62,18.23-5.11h16.48c17.41,1.46,32.72,11.06,33.3,29.49h-29.2c-.44-4.13-3.16-7.01-7.02-7.98-4.51-1.34-9.29-.94-13.18,1.84-2.01,2.3-.96,5.84,1.76,7.19,2.54,1.26,5.21,1.61,7.98,2.11l15.43,2.77c12.86,2.31,25.21,7.73,26.43,21.58.85,9.62-3.66,18.42-11.53,24.13-7.56,5.49-16.64,7.7-26.18,8.52Z"/>
      <g>
        <path fill="#d9a431" d="M1238.48,150.81c-9.85-3.59-15.68-12.92-14.75-23.29-.88-9.77,4.19-18.52,12.84-23.12,11.31-5.98,25-4,34.85-7.19,2.93-.95,4.49-3.07,4.15-6.12-.15-1.31-.24-2.58-1.39-3.5-2.93-2.36-6.93-3.15-10.59-2.15-4.13.48-7.11,3.17-7.46,7.55l-29.22.05c1.12-17.48,15.55-28.07,32.43-29.49h15.51c4.6.01,8.9,1.52,13.12,3.15,7.19,2.78,13.51,7.63,17,14.54,1.47,2.92,2.52,6.2,2.53,9.6l.18,60.65h-29.77s-.09-12.14-.09-12.14l-4.62,6.01c-5.28,5.53-12.67,7.61-20.25,7.64-5.03.02-9.49-.39-14.47-2.2ZM1255.09,130.36c2.01,2.17,4.8,2.47,7.45,2.52,6.62.12,12.73-4.42,13.35-11.08l.06-8.14-12.18,3.14c-2.64.68-5.19,1.04-7.37,2.72-3.27,2.52-4.32,7.59-1.32,10.84Z"/>
        <g>
          <path fill="#d9a431" d="M1412,99.69l.03,16.19c-.54,6.75-2.23,13.18-5.26,19.07-6.19,12.06-18.69,19.09-32.18,17.77-9.64-.94-17.28-6.63-21.23-15.3l-.15,14.07h-31.66s.02-116.38.02-116.38l31.65-.07.06,44.62c1.9-4.05,4.19-8.02,7.85-10.81s7.75-4.88,12.31-5.36c22.79-2.4,36.7,14.06,38.57,36.19ZM1375.87,92.5c-2.57-3.8-6.56-5.2-11.26-4.78-12.25,1.1-14.8,21.75-8.99,33.93,2.29,4.82,7.19,7.16,12.02,6.72s8.47-3.78,10.18-8.42c2.92-7.92,2.82-20.41-1.95-27.45Z"/>
          <path fill="#d9a431" d="M1469.88,153.21l-9.48.02c-8.45-.68-16.75-2.2-24.01-6.59-8.58-5.19-14.25-13.39-15.01-23.43h31.54c.16,2.77,1.72,4.38,3.67,6.26,6.5,4.2,18.86,2.72,18.9-3.12.03-3.95-5.18-5.26-9.85-6.11l-18.26-3.33c-15.22-2.78-26.05-13.2-23.74-29.2,1.22-8.48,6-15.11,13.73-19.04,5.59-2.85,11.75-4.62,18.23-5.11h16.48c17.41,1.46,32.72,11.06,33.3,29.49h-29.2c-.44-4.13-3.16-7.01-7.02-7.98-4.51-1.34-9.29-.94-13.18,1.84-2.01,2.3-.96,5.84,1.76,7.19,2.54,1.26,5.21,1.61,7.98,2.11l15.43,2.77c12.86,2.31,25.21,7.73,26.43,21.58.85,9.62-3.66,18.42-11.53,24.13-7.56,5.49-16.64,7.7-26.18,8.52Z"/>
        </g>
      </g>
      <path fill="#d9a431" d="M1062.1,115.2l29.52-.16c.26,10.62-3.92,21.54-11.86,28.29-3.43,2.91-6.88,5.17-11.12,6.72-7.41,2.7-15.37,3.79-23.24,3.15-10.74-.86-19.89-3.75-27.86-11.08-8.74-8.04-12.88-19.47-13.38-31.22l-.02-5.06c-.02-5.61,1.19-10.75,3.16-16.16,4.41-12.16,14.61-21.21,27.06-24.67l14.67-1.77c9.64-.16,19.08,1.63,27.11,6.99,8.7,5.8,14.04,14.73,15.24,25.08.22,1.93.75,3.69.07,5.85l-29.2-.04c-.3-4.1-1.23-7.55-3.69-10.49-2.7-3.23-6.97-4.43-11.18-3.47-3.7.84-7.1,3.51-8.64,7.73-4.01,11.04-3.05,29.7,6.72,33.31,3.96,1.46,7.89,1.1,11.26-1.22,3.56-2.45,5.23-6.86,5.39-11.78Z"/>
      <polygon fill="#d9a431" points="1214.51 126.09 1214.57 151.5 1135.4 151.49 1135.38 35.1 1167.52 35.1 1167.52 126.1 1214.51 126.09"/>
      <polygon fill="#d9a431" points="743.3 126.09 743.35 151.5 664.18 151.49 664.17 35.1 696.31 35.1 696.3 126.1 743.3 126.09"/>
      <rect fill="#d9a431" x="959.75" y="64.29" width="31.67" height="87.2"/>
      <path fill="#d9a431" d="M990.31,46.29c-2.68,6.29-9.23,9.8-15.85,9.35-8.87-.61-16.22-8.58-13.98-17.97,1.26-5.27,5.82-8.87,10.21-10.29,5.65-1.82,11.43-.46,15.55,3.16,4.6,4.05,6.62,9.76,4.06,15.75Z"/>
    </g>
  </g>
  <text font-family="MyriadPro-Regular, 'Myriad Pro'" font-size="12px" fill="#000000" transform="translate(741.54 98.5)"><tspan x="0" y="0">v</tspan></text>
</svg>